<?xml version="1.0" standalone="no"?>
<!DOCTYPE svg PUBLIC "-//W3C//DTD SVG 20010904//EN"
 "http://www.w3.org/TR/2001/REC-SVG-20010904/DTD/svg10.dtd">
<svg version="1.0" xmlns="http://www.w3.org/2000/svg"
 width="3543.000000pt" height="3543.000000pt" viewBox="0 0 3543.000000 3543.000000"
 preserveAspectRatio="xMidYMid meet">

<g transform="translate(0.000000,3543.000000) scale(0.100000,-0.100000)"
>


<path d="M20354 32919 c-646 -436 -1261 -912 -1849 -1432 -500 -443 -1105
-1048 -1552 -1552 -1196 -1352 -2200 -2908 -2933 -4545 -814 -1820 -1317
-3733 -1499 -5710 -53 -572 -71 -987 -71 -1650 0 -663 18 -1078 71 -1650 306
-3319 1519 -6465 3523 -9140 523 -699 1068 -1322 1723 -1971 613 -608 1177
-1097 1833 -1590 477 -359 1229 -869 1280 -869 26 0 275 52 508 106 2230 517
4343 1544 6132 2978 299 240 663 554 655 566 -3 4 -17 11 -32 14 -53 13 -428
139 -433 146 -3 4 -30 15 -60 25 -111 36 -433 155 -444 165 -7 5 -50 23 -96
40 -177 65 -390 153 -390 161 0 5 -5 9 -11 9 -18 0 -349 139 -404 169 -27 16
-99 49 -160 76 -60 26 -162 73 -225 106 -63 32 -187 93 -275 134 -87 42 -162
79 -165 84 -3 5 -79 46 -170 91 -91 45 -172 88 -180 96 -9 7 -65 39 -125 70
-143 75 -197 105 -226 127 -13 9 -78 47 -144 84 -66 36 -145 82 -175 103 -30
20 -111 70 -180 110 -69 40 -134 81 -145 90 -11 10 -81 55 -155 100 -74 45
-142 89 -150 97 -8 8 -76 54 -150 103 -201 134 -382 258 -410 284 -14 13 -70
54 -125 92 -55 38 -116 83 -135 99 -19 17 -82 66 -140 109 -209 154 -629 494
-810 656 -36 32 -85 75 -110 95 -254 211 -1124 1066 -1266 1244 -10 14 -55 64
-99 111 -107 116 -251 283 -382 443 -27 32 -86 105 -133 163 -47 57 -107 131
-135 165 -27 33 -63 80 -80 103 -16 24 -58 78 -92 122 -165 209 -455 620 -662
939 -99 151 -201 314 -201 319 0 2 -17 31 -38 63 -21 32 -47 74 -58 93 -10 19
-42 73 -70 120 -50 83 -128 219 -177 310 -13 25 -54 101 -92 170 -135 248
-336 651 -443 890 -87 195 -115 258 -132 298 -10 26 -39 97 -65 157 -206 490
-432 1140 -569 1640 -20 72 -45 162 -56 200 -115 409 -257 1111 -334 1645
-146 1017 -178 2141 -91 3160 76 876 246 1828 466 2600 17 58 44 152 60 210
40 137 202 640 245 755 183 497 226 605 364 925 18 41 46 107 63 145 96 225
411 861 532 1075 23 41 68 122 100 180 32 58 77 137 100 175 24 39 53 88 65
110 12 22 63 106 114 188 50 81 100 162 111 180 61 101 406 615 487 727 27 36
78 107 115 158 38 52 102 137 143 190 41 54 82 108 91 122 9 14 43 58 75 98
33 40 97 120 144 179 47 58 114 140 150 182 36 42 81 96 101 121 230 286 940
1029 1304 1365 65 61 151 140 189 176 39 36 103 92 141 124 39 33 77 67 85 76
8 9 56 50 107 92 112 92 163 138 163 147 0 4 -17 12 -37 18 -21 5 -119 32
-218 60 -405 113 -711 186 -1145 273 -164 32 -305 59 -313 59 -7 0 -108 -64
-223 -141z"
fill="#356130" stroke="none"/>


<path d="M19355 31389 c-2596 -79 -5192 -671 -7565 -1727 -2021 -898 -3836
-2091 -5490 -3606 -239 -219 -937 -917 -1156 -1156 -668 -729 -1261 -1473
-1802 -2261 -78 -114 -149 -223 -157 -242 -42 -100 -210 -730 -294 -1097 -279
-1233 -410 -2564 -373 -3797 17 -527 38 -837 88 -1293 306 -2763 1366 -5414
3047 -7620 191 -250 590 -740 603 -740 2 0 -3 17 -12 37 -636 1498 -1071 3215
-1234 4873 -60 611 -75 944 -75 1665 0 617 6 810 41 1265 303 4034 2038 7814
4899 10675 1563 1563 3388 2787 5426 3640 1955 818 4039 1258 6169 1302 l345
7 -210 18 c-721 59 -1512 79 -2250 57z"
fill="#007a48" stroke="none"/>


<path d="M15280 32735 l0 -65 3186 0 3187 0 126 -117 c364 -339 965 -975 1244
-1318 31 -38 84 -104 117 -145 34 -41 68 -84 77 -95 42 -50 219 -283 308 -405
54 -74 102 -137 106 -140 7 -5 43 -57 247 -358 134 -197 200 -301 338 -527 53
-88 112 -185 131 -215 130 -209 475 -863 625 -1185 20 -44 58 -125 84 -179 25
-55 50 -111 54 -125 5 -14 35 -84 67 -156 33 -71 69 -155 80 -185 12 -30 62
-158 111 -285 49 -126 99 -259 111 -295 13 -36 52 -148 88 -250 36 -102 67
-196 69 -209 3 -14 29 -99 59 -190 61 -189 113 -364 121 -407 3 -16 29 -117
58 -224 102 -372 265 -1168 296 -1438 6 -51 19 -152 29 -225 168 -1152 179
-2478 31 -3617 -10 -80 -28 -219 -40 -310 -30 -231 -65 -440 -115 -690 -24
-118 -53 -264 -65 -325 -21 -104 -105 -450 -190 -775 -34 -133 -138 -479 -211
-705 -65 -200 -192 -548 -274 -750 -29 -71 -63 -157 -76 -190 -12 -33 -50
-123 -84 -200 -34 -78 -66 -152 -70 -165 -4 -13 -41 -94 -82 -180 -41 -85 -84
-177 -96 -204 -92 -213 -541 -1044 -659 -1218 -21 -31 -38 -61 -38 -65 0 -5
-15 -31 -33 -58 -18 -28 -80 -123 -137 -213 -189 -294 -196 -303 -408 -602
-152 -215 -260 -357 -438 -580 -203 -254 -457 -557 -496 -592 -11 -10 -33 -34
-48 -53 -197 -248 -1082 -1110 -1400 -1364 -25 -19 -74 -61 -110 -91 -85 -73
-243 -201 -334 -270 -40 -30 -113 -86 -163 -125 -91 -70 -245 -183 -403 -296
-103 -73 -461 -314 -475 -320 -6 -2 -55 -34 -110 -71 -55 -36 -130 -84 -166
-105 -36 -21 -119 -70 -185 -109 -261 -156 -337 -199 -645 -363 -218 -116
-783 -391 -874 -424 -22 -8 -123 -51 -225 -95 -350 -151 -553 -228 -1000 -380
-230 -79 -570 -185 -695 -218 -55 -14 -156 -41 -225 -60 -343 -92 -467 -120
-1015 -229 -391 -77 -981 -158 -1465 -199 -953 -83 -1993 -62 -2915 59 -99 13
-238 31 -310 40 -207 26 -531 82 -780 135 -126 27 -259 54 -295 60 -76 13
-231 51 -495 121 -104 28 -224 59 -265 70 -136 36 -532 160 -730 229 -435 151
-446 155 -625 227 -253 102 -481 198 -680 285 -139 61 -754 367 -868 432 -64
36 -120 66 -123 66 -4 0 -38 18 -77 40 -39 23 -67 34 -64 26 11 -28 287 -435
442 -651 498 -695 983 -1265 1619 -1901 431 -430 703 -678 1136 -1033 2256
-1851 5064 -3041 7957 -3372 l192 -22 168 37 c4318 958 8099 3580 10502 7284
1578 2432 2500 5207 2691 8102 42 636 42 1564 0 2200 -299 4534 -2402 8749
-5835 11699 -191 164 -396 335 -429 356 -30 20 -338 132 -616 225 -271 91
-556 177 -820 250 l-185 50 -3247 0 -3248 0 0 -65z"
fill="#6ca85e" stroke="none"/>

<path d="M21545 28294 c-2099 -89 -3997 -447 -5925 -1117 -1387 -482 -2745
-1132 -4005 -1916 -2629 -1635 -4841 -3847 -6476 -6476 -315 -506 -572 -962
-845 -1500 -513 -1011 -884 -1909 -1234 -2992 l-72 -221 52 -193 c555 -2067
1581 -4060 2941 -5719 355 -433 603 -705 1033 -1136 525 -524 925 -877 1486
-1311 192 -148 601 -446 605 -441 1 2 -31 135 -71 296 -209 838 -355 1708
-433 2587 -46 510 -62 890 -62 1475 0 566 15 951 56 1430 322 3746 1871 7262
4416 10022 197 214 677 695 904 906 2699 2512 6132 4067 9805 4441 660 67
1319 93 2055 79 1493 -27 2979 -259 4455 -695 212 -63 817 -264 997 -331 80
-29 83 -30 71 -9 -84 158 -410 690 -551 902 l-67 99 -142 64 c-2107 940 -4308
1508 -6578 1696 -620 52 -790 58 -1585 61 -412 1 -786 1 -830 -1z"
fill="#a6ce39" stroke="none"/>


<path d="M17570 33284 c-1447 -37 -2816 -257 -4165 -669 -1871 -572 -3596
-1483 -5130 -2710 -183 -147 -509 -423 -630 -533 -52 -48 -55 -52 -24 -39 19
8 106 47 194 87 2283 1021 4846 1560 7420 1560 1179 0 2357 -113 3515 -336
1791 -345 3520 -959 5100 -1812 201 -108 245 -133 465 -260 1242 -720 2431
-1637 3395 -2618 1025 -1043 1826 -2115 2504 -3354 121 -219 363 -706 454
-910 33 -74 79 -177 102 -229 112 -254 291 -717 401 -1040 351 -1031 582
-2126 668 -3161 43 -510 46 -590 46 -1175 0 -585 -3 -665 -46 -1175 -126
-1513 -559 -3121 -1224 -4540 -374 -797 -764 -1470 -1295 -2234 -87 -125 -374
-507 -504 -671 -528 -665 -1163 -1337 -1786 -1891 -79 -71 -160 -144 -180
-163 l-35 -33 55 38 c30 21 145 105 255 188 1141 853 2186 1895 3050 3041
1780 2361 2840 5180 3059 8130 30 394 39 667 39 1130 0 463 -9 736 -39 1130
-219 2950 -1279 5769 -3059 8130 -855 1133 -1887 2165 -3020 3020 -2474 1865
-5444 2937 -8545 3085 -227 10 -846 19 -1040 14z"
fill="#007236" stroke="none"/>

</g>
</svg>
